<?xml version="1.0" encoding="UTF-8"?>
<!-- Created with Inkscape (http://www.inkscape.org/) -->
<svg width="30.464mm" height="30.438mm" version="1.1" viewBox="0 0 30.464 30.438" xmlns="http://www.w3.org/2000/svg">
 <g transform="translate(-38.558 -66.044)">
  <g stroke="#000">
   <g transform="matrix(.028646 0 0 .028646 43.381 69.465)">
    <g fill-opacity=".69312" fill-rule="evenodd">
     <g stroke-width="1px">
      <path d="m367.82 757.4c280.82-123.24 268.7-598.01 268.7-598.01h-268.7"/>
      <path d="m367.7 757.4c-280.82-123.24-268.7-598.01-268.7-598.01h268.7"/>
     </g>
     <path d="m367.64 756.56v-597.06" stroke-width=".99874px"/>
    </g>
    <path d="m350.12 747.21c-121.7-64.62-200.91-202.59-235.14-409.56-8.0696-48.79-14.307-118.48-14.33-160.11l-9e-3 -16.668h264.66v296.98c0 163.34-0.22729 296.96-0.50508 296.93-0.27779-0.0292-6.8815-3.439-14.675-7.5772h2e-5z" stroke-dasharray="16.1624, 16.1624" stroke-width="2.0203"/>
    <path transform="rotate(36.18 -104.7 1240.1)" d="m-153.26 373.76-44.831 121.4-42.009-119.5-129.32-5.1211 100.67-76.881-35.09-124.57 104.23 71.986 107.63-71.867-36.255 121.37 101.61 80.153z" fill="none" stroke-width="6"/>
   </g>
   <path transform="matrix(.095294 0 0 .095294 1.8702 45.585)" d="m425.71 458.08 12.011-34.615-33.935-13.814 23.704-27.938-26.654-25.14 32.196-17.489-15.772-33.07 36.339-4.6774-2.7609-36.535 35.575 8.7657 10.624-35.065 30.006 21.025 22.573-28.86 20.385 30.445 31.474-18.756 8.0104 35.753 36.124-6.1201-5.4458 36.232 35.896 7.3428-18.167 31.818 30.819 19.814-28.434 23.107 21.58 29.609-34.861 11.275 9.4271 35.406-36.58-2.0795-3.9994 36.42-33.359-15.153-16.886 32.516-25.632-26.181-27.492 24.22-14.444-33.672-34.385 12.654-1.3045-36.616z" fill="none" stroke-width="18.753"/>
  </g>
 </g>
</svg>
